<?xml version="1.0" encoding="utf-8"?>
<!-- Generator: Adobe Illustrator 19.0.0, SVG Export Plug-In . SVG Version: 6.00 Build 0)  -->
<svg version="1.1" id="Layer_1" xmlns="http://www.w3.org/2000/svg" xmlns:xlink="http://www.w3.org/1999/xlink" x="0px" y="0px"
	 viewBox="0 0 40 29.8" style="enable-background:new 0 0 40 29.8;" xml:space="preserve">
<g id="XMLID_15_">
	<path id="XMLID_11_" d="M7.4,8.9V6.5c0-0.4-0.2-0.6-0.6-0.6H6v3.6h0.9C7.2,9.5,7.4,9.3,7.4,8.9z"/>
	<path id="XMLID_10_" d="M6.9,11.7H6v3.9h0.9c0.4,0,0.6-0.2,0.6-0.6v-2.8C7.4,11.9,7.3,11.7,6.9,11.7z"/>
	<path id="XMLID_8_" d="M18.7,13.9v1.3c0,0.4,0.2,0.6,0.6,0.6c0.3,0,0.5-0.1,0.7-0.2v-3L19.2,13C18.8,13.2,18.7,13.4,18.7,13.9z"/>
	<path id="XMLID_7_" d="M34,8.2h-0.4c-0.3,0-0.4,0.1-0.4,0.4v6.7c0,0.3,0.1,0.4,0.4,0.4H34c0.3,0,0.4-0.1,0.4-0.4V8.6
		C34.5,8.3,34.3,8.2,34,8.2z"/>
	<path id="XMLID_18_" d="M36.9,0H0l0,22h3.3v7.8l7.8-7.8h25.8c1.9,0,3.1-1.1,3.1-3.1V3.1C40,1.1,38.9,0,36.9,0z M10.1,15.2
		c0,1.8-1,2.7-3,2.7H3.3V3.6h3.7c2,0,3,0.9,3,2.7v2c0,1.3-0.5,1.9-1.3,2.2c1,0.2,1.4,0.8,1.4,1.9V15.2z M15.6,8.7
		c-0.9,0-1.5,0.2-1.9,0.6v8.6h-2.6V6h2.5v1.2c0.5-0.9,0.9-1.4,2-1.3V8.7z M22.6,17.9h-2.5V17c-0.4,0.5-1.1,1-2,1h0
		c-1.1,0-1.8-0.7-1.8-2v-2.4c0-1.2,0.4-1.8,1.4-2.2l2.4-1V8.5c0-0.3-0.1-0.4-0.4-0.4h-0.4c-0.3,0-0.4,0.1-0.4,0.4V10h-2.4V8.4
		c0-1.7,0.9-2.5,2.8-2.5h0.6c1.9,0,2.8,0.8,2.8,2.5V17.9z M28.3,17.9h-3.4L23.1,6h2.6l1,8.1l1-8.1h2.4L28.3,17.9z M37.1,15.4
		c0,1.8-1,2.7-2.9,2.7h-0.7c-1.9,0-2.9-0.9-2.9-2.7V8.5c0-1.8,1-2.7,2.9-2.7h0.7c1.9,0,2.9,0.9,2.9,2.7V15.4z"/>
</g>
</svg>
