<?xml version="1.0" encoding="utf-8"?>
<!-- Generator: Adobe Illustrator 19.0.0, SVG Export Plug-In . SVG Version: 6.00 Build 0)  -->
<svg version="1.1" id="Layer_1" xmlns="http://www.w3.org/2000/svg" xmlns:xlink="http://www.w3.org/1999/xlink" x="0px" y="0px"
	 viewBox="0 -1.9 40 45.9" style="enable-background:new 0 -1.9 40 45.9;" xml:space="preserve">
<g>
	<path id="XMLID_11_" d="M5.6,14.4c-0.5-0.2-1-0.2-1.6-0.2c-0.8,0-1.5,0.2-2.2,0.8c-0.2,0.2-0.5,0.3-0.7,0.7C0.3,16.5,0,17.6,0,19
		c0,1.3,0.3,2.4,1.1,3.2c0.3,0.3,0.7,0.7,1.1,0.9c0.6,0.3,1.1,0.5,1.8,0.5h14l-11-8.1c-0.2-0.2-0.5-0.3-0.7-0.5
		C6.1,14.7,5.8,14.5,5.6,14.4L5.6,14.4z"/>
	<path id="XMLID_10_" d="M10.2,5.2C10.1,5.1,10,5.1,9.9,5C8.9,4.3,7.9,4.1,6.8,4.4C6.1,4.5,5.5,4.9,5,5.2C4.8,5.4,4.6,5.7,4.5,5.9
		C4.4,6,4.2,6.1,4.1,6.3C3.9,6.7,3.7,7.1,3.6,7.6C3.3,8.3,3.3,9,3.4,9.8C3.6,10.5,3.8,11,4,11.5c0.3,0.5,0.7,0.9,1.1,1.3L17.3,22
		l-5.5-14c-0.1-0.1-0.1-0.3-0.1-0.5c-0.2-0.6-0.5-1-0.6-1.4C11,6.1,11,6,10.9,5.9C10.7,5.7,10.4,5.4,10.2,5.2L10.2,5.2z"/>
	<path id="XMLID_9_" d="M16.7-1.5c-0.1,0-0.2-0.1-0.3-0.1c-0.7-0.2-1.4-0.2-2.1,0c-0.2,0.1-0.5,0.1-0.7,0.2c-1,0.6-1.8,1.4-2.2,2.5
		c0,0,0,0.1-0.1,0.2C11,2.6,11,3.7,11.5,4.9l6,15.1l1.9-15.5c0.1-0.9,0.1-1.5,0.1-1.9c0-0.5-0.1-0.8-0.2-1.3c0-0.1-0.1-0.3-0.1-0.5
		C18.7-0.2,17.9-1,16.7-1.5L16.7-1.5z"/>
	<path id="XMLID_8_" d="M33.5,14.9c-0.2,0.1-0.5,0.3-0.7,0.5L22,23.5h14c0.8,0,1.6-0.2,2.3-0.9c0.2-0.1,0.3-0.3,0.6-0.6l0.1-0.1
		c0.5-0.6,0.8-1.1,0.9-1.8c0-0.2,0.1-0.5,0.1-0.7s0-0.3,0-0.6c0-1-0.2-1.9-0.8-2.8c-0.1-0.2-0.2-0.3-0.5-0.6
		c-0.2-0.2-0.5-0.5-0.7-0.7c-0.3-0.2-0.6-0.5-0.9-0.6c-0.5-0.1-0.8-0.2-1.3-0.2c-0.6,0-1.1,0.1-1.6,0.2C34,14.5,33.8,14.7,33.5,14.9
		L33.5,14.9z"/>
	<path id="XMLID_7_" d="M28.5,1.3c0,0,0-0.1-0.1-0.2c-0.5-1.1-1.1-1.9-2.2-2.5c-0.2-0.1-0.5-0.2-0.7-0.2c-0.7-0.2-1.4-0.2-2.1,0
		c-0.1,0-0.2,0.1-0.3,0.1c-1.1,0.5-1.9,1.3-2.4,2.4c0,0.1-0.1,0.3-0.1,0.5c-0.2,0.7-0.2,1.4-0.2,2.1v0.1h1.1c0.3,0,0.6,0.1,0.6,0.2
		c0.1,0.1-0.1,0.2-0.5,0.5l-0.3,0.2L21,4.7c-0.1,0.1-0.2,0.3-0.3,0.7c0,0.2,0,0.3,0,0.6c0,0.1,0,0.1,0,0.2L22.5,20l6-15.2
		C28.9,3.7,28.9,2.6,28.5,1.3L28.5,1.3z"/>
	<path id="XMLID_6_" d="M36.4,8.8c0-0.8-0.2-1.6-0.7-2.4c-0.1-0.1-0.2-0.3-0.3-0.5c-0.1-0.2-0.3-0.5-0.6-0.6c-0.5-0.5-1-0.7-1.7-0.9
		c-1.3-0.2-2.3,0-3.1,0.6c-0.1,0.1-0.2,0.1-0.3,0.2c-0.2,0.2-0.5,0.3-0.6,0.6C29,5.9,28.9,6,28.9,6.1c-0.2,0.3-0.5,1-0.8,1.8
		l-5.5,14l12.1-9.3c0.5-0.3,0.8-0.7,1.1-1.3c0,0,0-0.1,0.1-0.1c0.1-0.2,0.2-0.6,0.3-0.9c0-0.2,0.1-0.5,0.1-0.7
		C36.4,9.4,36.6,9.1,36.4,8.8L36.4,8.8z"/>
	<path d="M19.1,30.2v3.6h1.6c0.5,0,0.8-0.2,1.1-0.6c0.3-0.3,0.5-0.8,0.5-1.4c0-0.5-0.2-0.8-0.5-1.1c-0.3-0.3-0.7-0.5-1-0.5H19.1
		L19.1,30.2z M19.1,36.4v3.9H21c0.6,0,1-0.1,1.5-0.5c0.5-0.2,0.7-0.7,0.7-1.4c0-1.3-0.7-2.1-2.2-2.1H19.1L19.1,36.4z M37.6,27.3v3.6
		c-0.9-0.6-1.7-0.8-2.4-0.8c-0.1,0-0.5,0-1,0.1c-1.1,0.2-2.2,0.8-3,1.7C30.4,32.8,30,34,30,35.3c0,1.3,0.3,2.3,1.1,3.2
		c0.7,0.9,1.6,1.5,2.8,1.7c0.3,0.1,0.7,0.1,1.1,0.1c0.9,0,1.7-0.3,2.5-0.8v3.9c-0.9,0.3-1.8,0.6-2.8,0.6c-0.5,0-0.7,0-0.9,0
		c-1.5-0.1-2.8-0.6-3.9-1.4c-1.1-0.8-2.2-1.8-2.8-3.2c-0.7-1.4-1-2.8-1-4.5c0-1.5,0.5-2.9,1.1-4.1s1.6-2.3,2.9-3
		c1.1-0.7,2.5-1.1,3.9-1.3C35.3,26.6,36.6,26.9,37.6,27.3L37.6,27.3z M5.7,43.5H2.6V26.6l8.6,8.7v-8h3.2v16.7L5.7,35V43.5L5.7,43.5z
		 M15.9,43.5V27.3h6.3c0.9,0.1,1.6,0.5,2.2,1.1c0.6,0.7,0.9,1.5,0.9,2.4c0,1.7-0.6,2.9-1.7,3.7c1.6,0.7,2.4,2.1,2.5,4
		c0,1.3-0.3,2.4-1.1,3.3c-0.7,0.9-1.7,1.5-2.9,1.5h-6.2V43.5z"/>
</g>
</svg>
