<?xml version="1.0" encoding="utf-8"?>
<!-- Generator: Adobe Illustrator 19.0.0, SVG Export Plug-In . SVG Version: 6.00 Build 0)  -->
<svg version="1.1" id="Layer_1" xmlns="http://www.w3.org/2000/svg" xmlns:xlink="http://www.w3.org/1999/xlink" x="0px" y="0px"
	 viewBox="0 0 40 21.7" style="enable-background:new 0 0 40 21.7;" xml:space="preserve">
<style type="text/css">
	.st0{clip-path:url(#SVGID_1_);fill-rule:evenodd;clip-rule:evenodd;}
	.st1{fill-rule:evenodd;clip-rule:evenodd;}
	.st2{clip-path:url(#SVGID_2_);fill-rule:evenodd;clip-rule:evenodd;}
</style>
<g id="XMLID_10_">
	<g id="XMLID_21_">
		<defs>
			<rect id="SVGID_5_" y="0" width="40" height="21.7"/>
		</defs>
		<clipPath id="SVGID_1_">
			<use xlink:href="#SVGID_5_"  style="overflow:visible;"/>
		</clipPath>
		<path id="XMLID_22_" class="st0" d="M29.1,5.9h-3.4V5.5c0-0.2,0-0.5,0-0.7c0-0.2,0.1-0.3,0.1-0.4C25.9,4.2,26,4.1,26.2,4
			c0.2-0.1,0.6-0.3,1.3-0.3h2.3V0h-2.4c-1.1,0-2,0.2-2.9,0.6c-0.6,0.3-1.1,0.7-1.5,1.2c-0.6,0.7-0.9,1.5-1,2.1
			c-0.1,0.7-0.1,1.2-0.1,1.6v10.1h3.8l0-6.2h3.4V5.9z M29.1,5.9"/>
	</g>
	<path id="XMLID_18_" class="st1" d="M34.8,21.5c3.3,0,5-2.4,5-4.7v-11h-3.5v5.5c0,0.2,0,0.6-0.3,0.9c-0.3,0.3-0.6,0.5-1.2,0.5
		c-0.6,0-1-0.2-1.2-0.5c-0.2-0.3-0.3-0.6-0.3-0.9V5.9h-3.6v5.5c0,2.3,1.7,4.7,4.6,4.7c0.6,0,1.1-0.1,1.7-0.3l0.3-0.1l0,0.3l0,0.8
		c0,0.2,0,0.4-0.2,0.7c-0.2,0.3-0.6,0.6-1.2,0.6c-0.6,0-1-0.3-1.2-0.5c-0.2-0.3-0.2-0.5-0.3-0.6l-3.6,0l0.1,0.6
		C30.4,19.5,32.2,21.5,34.8,21.5L34.8,21.5z M34.8,21.5"/>
	<g id="XMLID_11_">
		<defs>
			<rect id="SVGID_7_" y="0" width="40" height="21.7"/>
		</defs>
		<clipPath id="SVGID_2_">
			<use xlink:href="#SVGID_7_"  style="overflow:visible;"/>
		</clipPath>
		<path id="XMLID_15_" class="st2" d="M16.1,21.5c3.3,0,5-2.4,5-4.7v-11h-3.5v5.5c0,0.2,0,0.6-0.3,0.9c-0.3,0.3-0.6,0.5-1.2,0.5
			c-0.6,0-1-0.2-1.2-0.5c-0.2-0.3-0.3-0.6-0.3-0.9V5.9h-3.6v5.5c0,2.3,1.7,4.7,4.6,4.7c0.6,0,1.1-0.1,1.7-0.3l0.3-0.1v0.3l0,0.8
			c0,0.2,0,0.4-0.2,0.7c-0.2,0.3-0.6,0.6-1.2,0.6c-0.6,0-1-0.3-1.2-0.5c-0.2-0.3-0.2-0.5-0.3-0.6l-3.6,0l0.1,0.6
			C11.7,19.5,13.5,21.5,16.1,21.5L16.1,21.5z M16.1,21.5"/>
		<path id="XMLID_12_" class="st2" d="M0,11c0,0,0-0.3,0-0.5l3.5,0l0,0.2c0,0.6,0.4,1.2,0.7,1.5c0.3,0.2,0.8,0.3,1.1,0.3
			c0.8,0,1.5-0.5,1.5-1.2l0-0.1c0-0.6-0.4-0.9-0.9-1.1c-0.5-0.2-1.2-0.5-2.1-1C3.1,8.9,2.2,8.4,1.4,7.8C0.4,7-0.1,5.9,0,4.5
			c0-1.2,0.6-2.3,1.6-3.2C2.6,0.4,3.9,0,5.2,0c1.7,0,3.1,0.7,4,1.8c0.9,1.2,1.1,2.3,1.2,3.1l0,0.2H6.7c0-0.4-0.2-0.8-0.4-1.1
			C6,3.6,5.6,3.5,5.1,3.5c-0.3,0-0.6,0.1-0.9,0.3C4,3.9,3.8,4.2,3.8,4.6c0,0.4,0.2,0.7,0.7,1c0.5,0.3,2.1,0.9,2.3,1
			c2.2,0.9,3.6,2.2,3.8,4.3c0,0,0,0.1,0,0.1c0,0.7-0.2,1.9-1,3c-0.8,1.1-2.2,2-4.1,2C1.8,16.1,0,13.4,0,11L0,11z M0,11"/>
	</g>
</g>
</svg>
