<?xml version="1.0" encoding="utf-8"?>
<!-- Generator: Adobe Illustrator 19.0.0, SVG Export Plug-In . SVG Version: 6.00 Build 0)  -->
<svg version="1.1" xmlns="http://www.w3.org/2000/svg" xmlns:xlink="http://www.w3.org/1999/xlink" x="0px" y="0px"
	 viewBox="0 0 140 102" style="enable-background:new 0 0 140 102;" xml:space="preserve">
<style type="text/css">
	.st0{fill:#71CDF4;}
</style>
<g id="Layer_1">
</g>
<g id="Layer_2">
	<g id="XMLID_6_">
		<path id="XMLID_7_" class="st0" d="M94.7,45.3c-1.2-1-2.5-1.6-3.8-1.5c-1.4,0-2.6,0.6-3.7,1.7c-2.4,2.2-2.9,4.9-1.9,8.3
			c0.5,1.5,1.2,2.7,2.3,3.6c1,0.9,2.3,1.4,3.6,1.4c1.1,0,2.2-0.2,2.9-0.8c2.2-1.2,3.2-3.3,3.3-6.1C97.5,49,96.6,46.7,94.7,45.3z"/>
		<path id="XMLID_10_" class="st0" d="M0,0v102h140V0H0z M72.2,59.7c-0.2,0.8-0.6,1.4-1,1.9c-0.7,0.6-1.4,0.9-2,0.9
			c-1.4,0.2-2.8,0-4.4-0.8c-1-0.6-2.3-1.5-3.6-2.7L61,59.3c-0.6,1.5-1.2,2.6-2.3,3.6c-1,1.1-2.2,2-3.6,2.6c-1.5,0.6-3.1,0.9-4.6,1
			c-1.8,0.1-3.5,0.1-5.1-0.1c-1.6-0.2-3.2-0.7-4.6-1.5c-1.5-0.8-2.6-1.9-3.4-3.2c-0.9-1.4-1.5-2.8-1.8-4.4c-0.2-1.1-0.3-2.9-0.3-5.3
			V36h9.1l0.1,18c0.1,1.9,0.7,3.3,1.7,4.1c0.6,0.6,1.4,0.8,2.3,0.8s1.7-0.1,2.3-0.5c1.2-0.7,1.9-2,2.2-4.1c0.1-0.6,0.1-1.5,0.1-2.6
			V36h8.8L61,36.6c-0.8,0.8-1.5,1.6-1.8,2.4c-0.8,1.2-1.4,2.8-1.5,4.8c-0.1,1.6,0.1,3.2,0.7,4.6c0.6,1.6,1.5,2.8,2.5,3.7l2.2,1.4
			l5.1,1.8c1,0.3,1.8,0.7,2.5,1.1c0.6,0.3,0.9,0.8,1.2,1.4C72.2,58.3,72.4,59,72.2,59.7z M105.6,66.3h-8.7v-2.6
			c-1.1,1.1-2.4,1.9-3.8,2.5C90.5,67,87.9,67,85.1,66c-1.2-0.6-2.5-1.2-3.6-2l-0.8-0.8l-0.3-0.2l0.3-0.8c0.3-0.7,0.6-1.5,0.7-2.5
			c0.6-3.7-0.3-6.6-2.6-8.7c-1-1-2.5-1.8-4.2-2.4l-4.8-1.7c-0.8-0.2-1.4-0.6-1.9-1c-0.6-0.6-0.8-1.2-0.8-1.9c-0.1-0.8,0-1.6,0.5-2.2
			c0.3-0.6,0.8-1,1.6-1.4c1.2-0.6,2.8-0.6,4.6,0.1c1,0.5,2.3,1.4,4,2.8c1.1-2.3,2.6-4.1,4.4-5.3c0.9-0.6,1.9-1.1,2.9-1.5
			c1.5-0.6,2.9-0.8,4.6-0.7c1.2,0.1,2.4,0.3,3.5,0.7c1.2,0.5,2.5,1.2,3.6,2.3v-2.6h8.7V66.3z"/>
	</g>
</g>
</svg>
