<?xml version="1.0" encoding="utf-8"?>
<!-- Generator: Adobe Illustrator 20.0.0, SVG Export Plug-In . SVG Version: 6.00 Build 0)  -->
<svg version="1.1" id="Layer_1" xmlns="http://www.w3.org/2000/svg" xmlns:xlink="http://www.w3.org/1999/xlink" x="0px" y="0px"
	 viewBox="0 0 128 128" style="enable-background:new 0 0 128 128;" xml:space="preserve">
<style type="text/css">
	.st0{fill:#78909C;}
	.st1{fill:#37474F;}
	.st2{fill:#FF6666;}
	.st3{fill:none;}
	.st4{fill:#B0BEC5;}
	.st5{fill:#FFFFFF;}
	.st6{fill:#E60F18;}
</style>
<g>
	<g>
		<polygon class="st0" points="40.7,54.3 86.3,54.3 69.2,83.8 57.9,83.8 		"/>
		<path class="st1" d="M70,85.2H57.1L38.3,52.9h50.4L70,85.2z M58.7,82.4h9.7l15.6-26.7H43.2L58.7,82.4z"/>
	</g>
	<g>
		<g>
			<path class="st2" d="M44.6,27.7c-0.1-7.3-6.5-13.2-14.5-13.2S16,20.4,15.8,27.7c-0.1,0.6-0.2,1.2-0.2,1.8v31.2
				c0,4.6,3.7,8.3,8.6,8.3h11.6c5,0,9.3-3.8,9.3-8.3V29.4C45.1,28.8,44.7,28.2,44.6,27.7z"/>
			<path class="st1" d="M35.8,70.5H24.2c-5.5,0-10-4.3-10-9.8V29.4c0-0.6,0.1-1.3,0.2-2C14.6,19.3,21.5,13,30.1,13
				s15.6,6.5,15.8,14.4c0,0.1,0.1,0.2,0.1,0.4c0.2,0.5,0.5,1,0.5,1.8v31.2C46.5,65.9,41.6,70.5,35.8,70.5z M30.1,15.8
				c-7.1,0-12.7,5.2-12.9,11.8c0,0.1,0,0.2,0,0.3C17.1,28.5,17,29,17,29.4v31.2c0,3.9,3.1,6.9,7.2,6.9h11.6c4.2,0,7.9-3.2,7.9-6.9
				V29.4c0-0.2-0.1-0.4-0.2-0.6c-0.1-0.3-0.2-0.6-0.3-0.8c0-0.1,0-0.2-0.1-0.4C43.1,21.1,37.2,15.8,30.1,15.8z"/>
		</g>
		<g>
			<line class="st3" x1="22.1" y1="17.9" x2="22.1" y2="36.4"/>
			<path class="st1" d="M22.1,37.7c-0.7,0-1.4-0.6-1.4-1.4V17.9c0-0.7,0.6-1.4,1.4-1.4c0.7,0,1.4,0.6,1.4,1.4v18.4
				C23.5,37.1,22.8,37.7,22.1,37.7z"/>
		</g>
		<g>
			<line class="st3" x1="28.5" y1="15.2" x2="28.5" y2="33.6"/>
			<path class="st1" d="M28.5,35c-0.7,0-1.4-0.6-1.4-1.4V15.2c0-0.7,0.6-1.4,1.4-1.4c0.7,0,1.4,0.6,1.4,1.4v18.4
				C29.9,34.3,29.3,35,28.5,35z"/>
		</g>
		<g>
			<line class="st3" x1="35.9" y1="17" x2="35.9" y2="34.5"/>
			<path class="st1" d="M35.9,35.9c-0.7,0-1.4-0.6-1.4-1.4V17c0-0.7,0.6-1.4,1.4-1.4c0.7,0,1.4,0.6,1.4,1.4v17.5
				C37.3,35.2,36.6,35.9,35.9,35.9z"/>
		</g>
		<g>
			<line class="st3" x1="41.4" y1="20.7" x2="41.4" y2="39.1"/>
			<path class="st1" d="M41.4,40.5c-0.7,0-1.4-0.6-1.4-1.4V20.7c0-0.7,0.6-1.4,1.4-1.4s1.4,0.6,1.4,1.4v18.4
				C42.8,39.9,42.2,40.5,41.4,40.5z"/>
		</g>
		<g>
			<path class="st4" d="M50.3,43c-0.1-10.4-9.1-18.8-20.4-18.8S9.4,32.4,9.2,42.8c0,1,0,1.8,0,2.8V90c0,6.5,5.5,12.2,12.6,12.2h16.5
				c7.1,0,12.3-5.7,12.3-12.2V45.6C50.6,44.6,50.5,43.8,50.3,43z"/>
			<path class="st1" d="M38.3,103.6H21.8c-7.7,0-14-6.2-14-13.6V42.8c0.2-11.1,10-20,22.1-20c12,0,21.5,8.8,21.7,20
				c0.3,0.9,0.4,1.8,0.4,2.8V90C52,97.5,45.8,103.6,38.3,103.6z M29.9,25.6c-10.5,0-19.3,7.7-19.4,17.2V90c0,6,5.1,10.8,11.2,10.8
				h16.5c6.1,0,11-4.9,11-10.8V45.6c0-0.7-0.1-1.5-0.3-2.2c0-0.1,0-0.2,0-0.4C48.8,33.2,40.4,25.6,29.9,25.6z"/>
		</g>
		<g>
			<path class="st5" d="M51.1,53.2c0-0.9-0.4-1.8-0.6-2.6c-0.2-10.4-9.2-18.7-20.5-18.7S9.8,40.3,9.6,50.7"/>
			<path class="st1" d="M51.1,54.6c-0.7,0-1.4-0.6-1.4-1.4c0-0.5-0.2-0.9-0.3-1.5c-0.1-0.3-0.2-0.5-0.2-0.7c0-0.1,0-0.2,0-0.4
				c-0.2-9.6-8.7-17.4-19.1-17.4s-18.9,7.8-19.1,17.4c0,0.7-0.6,1.4-1.4,1.4l0,0c-0.7,0-1.4-0.6-1.4-1.4c0.2-11.1,10-20.1,21.8-20.1
				c11.8,0,21.6,8.9,21.8,19.9c0,0.2,0.1,0.4,0.2,0.5c0.2,0.6,0.5,1.5,0.5,2.3C52.5,54,51.8,54.6,51.1,54.6z"/>
		</g>
		<g>
			<path class="st5" d="M50.5,59.5c-0.2-10.4-9.2-18.8-20.5-18.8S9.8,49.1,9.6,59.5"/>
			<path class="st1" d="M9.5,60.9L9.5,60.9c-0.7,0-1.4-0.6-1.4-1.4c0.2-11.1,10-20.2,21.8-20.2s21.7,9,21.8,20.2
				c0,0.7-0.6,1.4-1.4,1.4c-0.7,0-1.4-0.6-1.4-1.4c-0.2-9.6-8.7-17.4-19.1-17.4s-18.9,7.8-19.1,17.4C10.9,60.3,10.4,60.9,9.5,60.9z"
				/>
		</g>
		<g>
			<path class="st5" d="M50.6,68.6c-0.2-10.4-9.4-19-20.6-19S9.4,58,9.2,68.4"/>
			<path class="st1" d="M50.6,70c-0.7,0-1.4-0.6-1.4-1.4C49.1,58.9,40.5,51,30,51c-10.6,0-19.4,7.8-19.4,17.4c0,0.7-0.6,1.4-1.4,1.4
				l0,0c-0.7,0-1.4-0.6-1.4-1.4C8,57.4,17.9,48.3,30,48.3c12,0,21.8,9.1,22,20.3C52,69.3,51.4,69.9,50.6,70L50.6,70z"/>
		</g>
		<g>
			<g>
				<path class="st6" d="M50.5,94.5c0,10.5-9.2,19-20.5,19S9.5,105,9.5,94.5s9.1-19,20.5-19S50.5,84,50.5,94.5z"/>
				<path class="st1" d="M30,115c-12.1,0-21.8-9.1-21.8-20.4C8.2,83.3,18,74.1,30,74.1c12.1,0,21.9,9.1,21.9,20.4S42.1,115,30,115z
					 M30,76.9c-10.5,0-19.1,7.9-19.1,17.6s8.6,17.6,19.1,17.6s19.2-7.9,19.2-17.6S40.6,76.9,30,76.9z"/>
			</g>
			<g>
				<g>
					<path class="st4" d="M43,94.5c0,6.6-5.8,12-13,12s-12.9-5.3-12.9-12S22.9,82.4,30,82.4S43,87.9,43,94.5z"/>
					<path class="st1" d="M30,108c-7.9,0-14.3-6-14.3-13.4S22.2,81.1,30,81.1c7.9,0,14.4,6,14.4,13.5C44.4,101.9,37.9,108,30,108z
						 M30,83.9c-6.4,0-11.5,4.8-11.5,10.7c0,5.9,5.2,10.6,11.5,10.6s11.6-4.8,11.6-10.6C41.6,88.6,36.4,83.9,30,83.9z"/>
				</g>
				<g>
					<path class="st1" d="M37.5,94.5c0,3.8-3.3,6.8-7.4,6.8s-7.4-3-7.4-6.8c0-3.8,3.2-6.8,7.4-6.8S37.5,90.7,37.5,94.5z"/>
					<path class="st1" d="M30,102.8c-4.8,0-8.8-3.7-8.8-8.2s4-8.2,8.8-8.2c4.9,0,8.8,3.7,8.8,8.2C38.8,99,34.9,102.8,30,102.8z
						 M30,89.1c-3.3,0-6,2.5-6,5.4c0,3,2.7,5.4,6,5.4s6-2.5,6-5.4C36.1,91.5,33.3,89.1,30,89.1z"/>
				</g>
				<path class="st5" d="M29.5,90.5c0,2-1.8,3.7-4.1,3.7c-2.2,0-4-1.7-4-3.7c0-2,1.8-3.7,4-3.7C27.8,86.9,29.5,88.5,29.5,90.5z"/>
				<path class="st5" d="M36.5,100.4c0,0.9-0.8,1.7-1.8,1.7c-1,0-1.8-0.7-1.8-1.7c0-0.9,0.7-1.7,1.8-1.7
					C35.7,98.7,36.5,99.5,36.5,100.4z"/>
			</g>
		</g>
		<g>
			<g>
				<path class="st1" d="M21.9,65.6c0,0.8-0.6,1.5-1.3,1.5s-1.4-0.6-1.4-1.5c0-0.8,0.6-1.5,1.4-1.5C21.3,64.1,21.9,64.8,21.9,65.6z"
					/>
				<path class="st1" d="M20.6,67.5c-0.5,0-0.9-0.2-1.3-0.6c-0.4-0.4-0.6-0.8-0.6-1.4c0-1.1,0.8-1.9,1.8-1.9s1.8,0.8,1.8,1.9
					C22.3,66.7,21.6,67.5,20.6,67.5L20.6,67.5z M20.6,64.6c-0.6,0-0.9,0.5-0.9,1c0,0.3,0.1,0.6,0.3,0.7c0.2,0.2,0.4,0.3,0.6,0.3V67
					v-0.5c0.5,0,0.8-0.5,0.8-1C21.4,65.1,21.1,64.6,20.6,64.6z"/>
			</g>
			<g>
				<path class="st1" d="M31.4,65.6c0.1,0.8-0.6,1.5-1.4,1.5c-0.7,0-1.3-0.6-1.4-1.5c0-0.8,0.6-1.5,1.4-1.5
					C30.8,64.1,31.4,64.8,31.4,65.6z"/>
				<path class="st1" d="M30.1,67.5L30.1,67.5L30.1,67.5c-1,0-1.8-0.8-1.8-1.9s0.8-1.9,1.8-1.9c0.9,0,1.8,0.9,1.8,1.9
					c0,0.5-0.2,1-0.5,1.4C31,67.3,30.5,67.5,30.1,67.5z M30.1,64.6c-0.6,0-0.9,0.5-0.9,1s0.5,1,0.8,1h0.1c0.3,0,0.5-0.1,0.6-0.3
					c0.2-0.2,0.3-0.5,0.3-0.6C30.9,65.1,30.5,64.6,30.1,64.6z"/>
			</g>
			<g>
				<path class="st1" d="M41,65.6c0,0.8-0.6,1.5-1.4,1.5c-0.7,0-1.4-0.6-1.4-1.5c0-0.8,0.6-1.5,1.4-1.5C40.3,64.1,41,64.8,41,65.6z"
					/>
				<path class="st1" d="M39.6,67.5L39.6,67.5c-1,0-1.8-0.9-1.8-1.9s0.8-1.9,1.8-1.9c1,0,1.8,0.9,1.8,1.9
					C41.3,66.7,40.6,67.5,39.6,67.5L39.6,67.5z M39.6,64.6c-0.5,0-0.9,0.5-0.9,1s0.4,1,0.9,1c0.5,0,0.9-0.5,0.9-1S40,64.6,39.6,64.6
					z"/>
			</g>
		</g>
	</g>
	<g>
		<g>
			<path class="st2" d="M112.2,27.7c-0.1-7.3-6.5-13.2-14.3-13.2c-7.9,0-14.4,5.9-14.5,13.2c-0.2,0.6-0.5,1.2-0.5,1.8v31.2
				c0,4.6,4.3,8.3,9.2,8.3h11.6c5,0,8.7-3.8,8.7-8.3V29.4C112.4,28.8,112.3,28.2,112.2,27.7z"/>
			<path class="st1" d="M103.7,70.5H92.1c-5.7,0-10.6-4.5-10.6-9.8V29.4c0-0.6,0.2-1.2,0.4-1.7c0-0.1,0.1-0.3,0.1-0.4
				C82.2,19.5,89.2,13,97.8,13c8.7,0,15.5,6.3,15.7,14.4c0.2,0.6,0.3,1.3,0.3,2v31.2C113.8,66.1,109.3,70.5,103.7,70.5z M97.8,15.8
				c-7.1,0-13,5.3-13.1,11.8c0,0.1,0,0.2,0,0.3c-0.1,0.3-0.2,0.5-0.3,0.7c-0.1,0.4-0.2,0.6-0.2,0.8v31.2c0,3.8,3.6,6.9,7.8,6.9h11.6
				c4.1,0,7.3-3,7.3-6.9V29.4c0-0.6-0.1-0.9-0.2-1.5c0-0.1,0-0.2,0-0.3C110.7,21.1,105,15.8,97.8,15.8z"/>
		</g>
		<g>
			<line class="st3" x1="89.3" y1="17.9" x2="89.3" y2="36.4"/>
			<path class="st1" d="M89.3,37.7c-0.7,0-1.4-0.6-1.4-1.4V17.9c0-0.7,0.6-1.4,1.4-1.4c0.7,0,1.4,0.6,1.4,1.4v18.4
				C90.7,37.1,90.1,37.7,89.3,37.7z"/>
		</g>
		<g>
			<line class="st3" x1="95.8" y1="15.2" x2="95.8" y2="33.6"/>
			<path class="st1" d="M95.8,35c-0.7,0-1.4-0.6-1.4-1.4V15.2c0-0.7,0.6-1.4,1.4-1.4s1.4,0.6,1.4,1.4v18.4
				C97.2,34.3,96.5,35,95.8,35z"/>
		</g>
		<g>
			<line class="st3" x1="103.2" y1="17" x2="103.2" y2="34.5"/>
			<path class="st1" d="M103.2,35.9c-0.7,0-1.4-0.6-1.4-1.4V17c0-0.7,0.6-1.4,1.4-1.4s1.4,0.6,1.4,1.4v17.5
				C104.5,35.2,103.9,35.9,103.2,35.9z"/>
		</g>
		<g>
			<line class="st3" x1="108.7" y1="19.8" x2="108.7" y2="38.2"/>
			<path class="st1" d="M108.7,39.6c-0.7,0-1.4-0.6-1.4-1.4V19.8c0-0.7,0.6-1.4,1.4-1.4s1.4,0.6,1.4,1.4v18.4
				C110.1,38.9,109.4,39.6,108.7,39.6z"/>
		</g>
		<g>
			<path class="st4" d="M118.8,42.9c-0.1-10.4-9.7-18.7-20.9-18.7S77.4,32.6,77.3,43c-0.2,0.8-0.8,1.7-0.8,2.6V90
				c0,6.5,6.2,12.2,13.3,12.2h16.5c7.1,0,12.6-5.7,12.6-12.2V45.6C118.8,44.6,118.8,44,118.8,42.9z"/>
			<path class="st1" d="M106.2,103.6H89.7c-7.7,0-14.7-6.4-14.7-13.5V45.6c0-0.8,0.3-1.6,0.6-2.2c0.1-0.2,0.2-0.5,0.3-0.6
				c0.3-11.1,10.1-19.9,22-19.9c12.2,0,22.1,9,22.3,20.1V90C120.2,97.5,113.9,103.6,106.2,103.6z M97.9,25.6
				c-10.5,0-19.2,7.8-19.3,17.4c0,0.1,0,0.2,0,0.4c-0.1,0.4-0.3,0.7-0.4,1.1c-0.3,0.4-0.5,0.8-0.5,1.1V90c0,5.8,5.5,10.8,11.9,10.8
				h16.5c6.2,0,11.2-4.9,11.2-10.8V42.9C117.4,33.4,108.6,25.6,97.9,25.6z"/>
		</g>
		<g>
			<path class="st5" d="M118.4,50.6c-0.1-10.4-9.2-18.7-20.5-18.7s-20.4,8.4-20.5,18.8c-0.2,0.8-0.6,1.7-0.6,2.6"/>
			<path class="st1" d="M76.9,54.6c-0.7,0-1.4-0.6-1.4-1.4c0-0.9,0.3-1.7,0.5-2.3c0.1-0.2,0.1-0.3,0.2-0.5
				c0.3-11.1,10-19.9,21.8-19.9c11.9,0,21.7,9,21.8,20.1c0,0.7-0.6,1.4-1.4,1.4c-0.7,0-1.4-0.6-1.4-1.4c-0.1-9.6-8.7-17.4-19.1-17.4
				s-19,7.8-19.1,17.4c0,0.1,0,0.2,0,0.4c-0.1,0.3-0.2,0.5-0.2,0.7c-0.2,0.6-0.3,1-0.3,1.5C78.3,54,77.6,54.6,76.9,54.6z"/>
		</g>
		<g>
			<path class="st5" d="M118.4,59.5c-0.1-10.4-9.2-18.8-20.5-18.8s-20.4,8.4-20.5,18.8c-0.2,0.8-0.6,1.7-0.6,2.6"/>
			<path class="st1" d="M76.9,63.4c-0.7,0-1.4-0.6-1.4-1.4c0-0.8,0.3-1.7,0.5-2.3c0.1-0.2,0.1-0.3,0.2-0.5c0.3-11.1,10-20,21.8-20
				c11.9,0,21.7,9,21.8,20.2c0,0.7-0.6,1.4-1.4,1.4l0,0c-0.7,0-1.4-0.6-1.4-1.4c-0.1-9.6-8.7-17.4-19.1-17.4s-19,7.8-19.1,17.4
				c0,0.1,0,0.2-0.1,0.4c-0.1,0.3-0.2,0.5-0.2,0.7c-0.2,0.6-0.3,1-0.3,1.5C78.3,62.9,77.6,63.4,76.9,63.4z"/>
		</g>
		<g>
			<path class="st5" d="M118.8,68.8c-0.1-10.4-9.7-19.2-20.9-19.2s-21.4,8.5-21.5,18.9"/>
			<path class="st1" d="M118.8,70.2c-0.7,0-1.4-0.6-1.4-1.4c-0.1-9.7-9-17.8-19.5-17.8c-10.8,0-20,8-20.1,17.5
				c0,0.7-0.6,1.4-1.4,1.4c-0.7,0-1.4-0.6-1.4-1.4c0.2-11,10.6-20.3,22.9-20.3c11.9,0,22.1,9.4,22.3,20.5
				C120.2,69.5,119.6,70.2,118.8,70.2L118.8,70.2z"/>
		</g>
		<g>
			<g>
				<path class="st6" d="M118.5,94.5c0,10.5-9.2,19-20.5,19c-11.3,0-20.5-8.5-20.5-19s9.2-19,20.5-19
					C109.2,75.5,118.5,84,118.5,94.5z"/>
				<path class="st1" d="M97.9,115C85.8,115,76,105.8,76,94.6s9.9-20.4,21.9-20.4c12.1,0,21.8,9.1,21.8,20.4
					C119.8,105.7,110,115,97.9,115z M97.9,76.9c-10.5,0-19.2,7.9-19.2,17.6s8.6,17.6,19.2,17.6c10.5,0,19.1-7.9,19.1-17.6
					C117.1,84.8,108.5,76.9,97.9,76.9z"/>
			</g>
			<g>
				<g>
					<path class="st4" d="M110.9,94.5c0,6.6-5.8,12-13,12c-7.2,0-13-5.3-13-12s5.7-12.1,13-12.1C105.1,82.5,110.9,87.9,110.9,94.5z"
						/>
					<path class="st1" d="M97.9,108c-7.9,0-14.4-6-14.4-13.4S90,81.1,97.9,81.1s14.4,6,14.4,13.5C112.3,101.9,105.8,108,97.9,108z
						 M97.9,83.9c-6.4,0-11.6,4.8-11.6,10.7c0,5.9,5.2,10.6,11.6,10.6c6.5,0,11.6-4.8,11.6-10.6C109.5,88.6,104.4,83.9,97.9,83.9z"
						/>
				</g>
				<g>
					<path class="st1" d="M105.4,94.5c0,3.8-3.3,6.8-7.4,6.8c-4.1,0-7.4-3-7.4-6.8c0-3.8,3.2-6.8,7.4-6.8
						C102.1,87.7,105.4,90.7,105.4,94.5z"/>
					<path class="st1" d="M97.9,102.8c-4.8,0-8.8-3.7-8.8-8.2s4-8.2,8.8-8.2c4.8,0,8.8,3.7,8.8,8.2C106.8,99,102.8,102.8,97.9,102.8
						z M97.9,89.1c-3.3,0-6,2.5-6,5.4c0,3,2.7,5.4,6,5.4s6-2.5,6-5.4C104,91.5,101.2,89.1,97.9,89.1z"/>
				</g>
				<path class="st5" d="M97.5,90.5c0,2-1.8,3.7-4.1,3.7c-2.2,0-4-1.7-4-3.7c0-2,1.8-3.7,4-3.7C95.7,86.9,97.5,88.5,97.5,90.5z"/>
				<path class="st5" d="M104.5,100.4c0,0.9-0.8,1.7-1.8,1.7c-1,0-1.8-0.7-1.8-1.7c0-0.9,0.7-1.7,1.8-1.7
					C103.6,98.7,104.5,99.5,104.5,100.4z"/>
			</g>
		</g>
		<g>
			<g>
				<path class="st1" d="M89.8,65.6c0,0.8-0.6,1.5-1.3,1.5c-0.7,0-1.4-0.6-1.4-1.5c0-0.8,0.6-1.5,1.4-1.5S89.8,64.8,89.8,65.6z"/>
				<path class="st1" d="M88.5,67.5c-0.5,0-0.9-0.2-1.3-0.6c-0.4-0.4-0.6-0.8-0.6-1.4c0-1.1,0.8-1.9,1.8-1.9s1.8,0.8,1.8,1.9
					C90.3,66.7,89.4,67.5,88.5,67.5L88.5,67.5z M88.5,64.6c-0.6,0-0.9,0.5-0.9,1c0,0.3,0.1,0.6,0.3,0.7c0.2,0.2,0.4,0.3,0.6,0.3V67
					v-0.5c0.5,0,0.8-0.5,0.8-1C89.3,65.1,89,64.6,88.5,64.6z"/>
			</g>
			<g>
				<path class="st1" d="M99.3,65.6c0.1,0.8-0.6,1.5-1.4,1.5c-0.7,0-1.4-0.6-1.4-1.5c0-0.8,0.6-1.5,1.4-1.5
					C98.6,64.1,99.3,64.8,99.3,65.6z"/>
				<path class="st1" d="M98,67.5L98,67.5L98,67.5c-1,0-1.8-0.8-1.8-1.9s0.8-1.9,1.8-1.9c0.9,0,1.8,0.9,1.8,1.9c0,0.5-0.2,1-0.5,1.4
					C98.9,67.3,98.5,67.5,98,67.5z M98,64.6c-0.6,0-0.9,0.5-0.9,1s0.5,1,0.9,1h0.1c0.2,0,0.5-0.1,0.6-0.3c0.2-0.2,0.3-0.5,0.3-0.6
					C98.8,65.1,98.5,64.6,98,64.6z"/>
			</g>
			<g>
				<path class="st1" d="M108.8,65.6c0,0.8-0.6,1.5-1.4,1.5c-0.7,0-1.4-0.6-1.4-1.5c0-0.8,0.6-1.5,1.4-1.5
					C108.2,64.1,108.8,64.8,108.8,65.6z"/>
				<path class="st1" d="M107.5,67.5L107.5,67.5c-1,0-1.8-0.8-1.8-1.9c0-1,0.8-1.9,1.8-1.9s1.8,0.9,1.8,1.9
					C109.2,66.7,108.4,67.5,107.5,67.5L107.5,67.5z M107.4,64.6c-0.5,0-0.9,0.5-0.9,1s0.4,1,0.9,1c0.5,0,0.9-0.5,0.9-1
					S108,64.6,107.4,64.6z"/>
			</g>
		</g>
	</g>
	<g>
		<polygon class="st6" points="40.7,35.9 86.3,35.9 69.2,65.4 57.9,65.4 		"/>
		<path class="st1" d="M69.2,66.8H57.9c-0.5,0-0.9-0.3-1.2-0.6L39.6,36.6c-0.3-0.5-0.3-0.9,0-1.4s0.7-0.7,1.2-0.7h45.6
			c0.5,0,0.9,0.3,1.2,0.7c0.3,0.5,0.3,0.9,0,1.4L70.5,66.1C70.1,66.5,69.6,66.8,69.2,66.8z M58.7,64h9.7l15.6-26.7H43.2L58.7,64z"/>
	</g>
	<g>
		<g>
			<line class="st3" x1="58" y1="64.9" x2="58" y2="83.4"/>
			<path class="st1" d="M58,84.7c-0.7,0-1.4-0.6-1.4-1.4V64.9c0-0.7,0.6-1.4,1.4-1.4c0.7,0,1.4,0.6,1.4,1.4v18.4
				C59.4,84.1,58.7,84.7,58,84.7z"/>
		</g>
		<g>
			<line class="st3" x1="69.1" y1="64.9" x2="69.1" y2="83.4"/>
			<path class="st1" d="M69.1,84.7c-0.7,0-1.4-0.6-1.4-1.4V64.9c0-0.7,0.6-1.4,1.4-1.4s1.4,0.6,1.4,1.4v18.4
				C70.5,84.1,69.8,84.7,69.1,84.7z"/>
		</g>
	</g>
	<g>
		<line class="st3" x1="59.4" y1="41.4" x2="67.7" y2="41.4"/>
		<path class="st1" d="M67.7,42.8h-8.3c-0.7,0-1.4-0.6-1.4-1.4s0.6-1.4,1.4-1.4h8.3c0.7,0,1.4,0.6,1.4,1.4S68.4,42.8,67.7,42.8z"/>
	</g>
	<g>
		<line class="st3" x1="59.4" y1="47.9" x2="67.7" y2="47.9"/>
		<path class="st1" d="M67.7,49.3h-8.3c-0.7,0-1.4-0.6-1.4-1.4c0-0.7,0.6-1.4,1.4-1.4h8.3c0.7,0,1.4,0.6,1.4,1.4
			C69.1,48.6,68.4,49.3,67.7,49.3z"/>
	</g>
	<g>
		<line class="st3" x1="59.4" y1="54.3" x2="67.7" y2="54.3"/>
		<path class="st1" d="M67.7,55.7h-8.3c-0.7,0-1.4-0.6-1.4-1.4c0-0.7,0.6-1.4,1.4-1.4h8.3c0.7,0,1.4,0.6,1.4,1.4
			C69.1,55.1,68.4,55.7,67.7,55.7z"/>
	</g>
</g>
</svg>
