<?xml version="1.0" encoding="utf-8"?>
<!-- Generator: Adobe Illustrator 20.0.0, SVG Export Plug-In . SVG Version: 6.00 Build 0)  -->
<svg version="1.1" id="Layer_1" xmlns="http://www.w3.org/2000/svg" xmlns:xlink="http://www.w3.org/1999/xlink" x="0px" y="0px"
	 viewBox="0 0 128 128" style="enable-background:new 0 0 128 128;" xml:space="preserve">
<style type="text/css">
	.st0{fill:#526972;}
	.st1{fill:#474747;}
	.st2{fill:#FFFFFF;}
	.st3{fill:none;}
	.st4{fill:#37474F;}
	.st5{fill:#B0BEC5;}
	.st6{fill:#E60F18;}
</style>
<g>
	<g>
		<g>
			<polygon class="st0" points="43.5,122.7 2.5,109.4 2.5,20.2 43.5,33.6 			"/>
			<path class="st1" d="M43.5,124.2c-0.2,0-0.3,0-0.5-0.1L2,110.8c-0.6-0.2-1-0.8-1-1.4V20.2c0-0.5,0.2-0.9,0.6-1.2
				C2,18.7,2.5,18.6,3,18.8l41,13.4c0.6,0.2,1,0.8,1,1.4v89.1c0,0.5-0.2,0.9-0.6,1.2C44.1,124.1,43.8,124.2,43.5,124.2z M4,108.3
				l38,12.4v-86L4,22.3V108.3z"/>
		</g>
		<g>
			<polygon class="st2" points="125.5,122.7 85.5,109.4 85.5,20.2 125.5,33.6 			"/>
			<path class="st1" d="M125.5,124.2c-0.2,0-0.3,0-0.5-0.1l-40-13.4c-0.6-0.2-1-0.8-1-1.4V20.2c0-0.5,0.2-0.9,0.6-1.2
				s0.9-0.4,1.4-0.2l40,13.4c0.6,0.2,1,0.8,1,1.4v89.1c0,0.5-0.2,0.9-0.6,1.2C126.1,124.1,125.8,124.2,125.5,124.2z M87,108.3
				l37,12.4v-86L87,22.3V108.3z"/>
		</g>
		<g>
			<g>
				<line class="st3" x1="96.1" y1="42.2" x2="114.8" y2="48.4"/>
				<path class="st4" d="M114.8,49.9c-0.2,0-0.3,0-0.5-0.1l-18.7-6.1c-0.8-0.3-1.2-1.1-1-1.9c0.3-0.8,1.1-1.2,1.9-1l18.7,6.1
					c0.8,0.3,1.2,1.1,1,1.9C116,49.5,115.4,49.9,114.8,49.9z"/>
			</g>
			<g>
				<line class="st3" x1="96.1" y1="55.3" x2="114.8" y2="61.5"/>
				<path class="st4" d="M114.8,63c-0.2,0-0.3,0-0.5-0.1l-18.7-6.2c-0.8-0.3-1.2-1.1-1-1.9c0.3-0.8,1.1-1.2,1.9-1l18.7,6.2
					c0.8,0.3,1.2,1.1,1,1.9C116,62.6,115.4,63,114.8,63z"/>
			</g>
			<g>
				<line class="st3" x1="96.1" y1="68.4" x2="114.8" y2="74.5"/>
				<path class="st4" d="M114.8,76c-0.2,0-0.3,0-0.5-0.1l-18.7-6.2c-0.8-0.3-1.2-1.1-1-1.9c0.3-0.8,1.1-1.2,1.9-1l18.7,6.2
					c0.8,0.3,1.2,1.1,1,1.9C116,75.6,115.4,76,114.8,76z"/>
			</g>
			<g>
				<line class="st3" x1="96.1" y1="81.5" x2="114.8" y2="87.6"/>
				<path class="st4" d="M114.8,89.1c-0.2,0-0.3,0-0.5-0.1l-18.7-6.1c-0.8-0.3-1.2-1.1-1-1.9c0.3-0.8,1.1-1.2,1.9-1l18.7,6.1
					c0.8,0.3,1.2,1.1,1,1.9C116,88.7,115.4,89.1,114.8,89.1z"/>
			</g>
			<g>
				<line class="st3" x1="96.1" y1="94.6" x2="114.8" y2="100.7"/>
				<path class="st4" d="M114.8,102.2c-0.2,0-0.3,0-0.5-0.1L95.6,96c-0.8-0.3-1.2-1.1-1-1.9c0.3-0.8,1.1-1.2,1.9-1l18.7,6.2
					c0.8,0.3,1.2,1.1,1,1.9C116,101.8,115.4,102.2,114.8,102.2z"/>
			</g>
		</g>
		<g>
			<polygon class="st5" points="43.5,122.7 84.5,109.4 84.5,20.2 43.5,33.6 			"/>
			<path class="st1" d="M43.5,124.2c-0.3,0-0.6-0.1-0.9-0.3c-0.4-0.3-0.6-0.7-0.6-1.2V33.6c0-0.6,0.4-1.2,1-1.4l41-13.4
				c0.5-0.2,1-0.1,1.3,0.2c0.4,0.3,0.6,0.7,0.6,1.2v89.2c0,0.6-0.4,1.2-1,1.4l-41,13.4C43.8,124.2,43.7,124.2,43.5,124.2z M45,34.7
				v86l38-12.4v-86L45,34.7z"/>
		</g>
	</g>
	<g>
		<g>
			<path class="st6" d="M81.3,38.6c2.5-3.5,4-7.7,4-12.3c0-11.6-9.4-21.1-21.1-21.1s-21,9.4-21,21.1c0,4.6,1.5,8.8,4,12.3L64.3,68
				L81.3,38.6z"/>
			<path class="st1" d="M64.2,69.6L64.2,69.6c-0.5,0-1-0.3-1.3-0.7l-17-29.4c-2.8-3.9-4.2-8.4-4.2-13.1C41.7,14,51.8,3.8,64.2,3.8
				s22.6,10.1,22.6,22.6c0,4.7-1.5,9.2-4.2,13.1l-17,29.4C65.2,69.3,64.8,69.6,64.2,69.6z M64.2,6.8c-10.8,0-19.5,8.8-19.5,19.6
				c0,4.1,1.3,8,3.7,11.4l0.1,0.1l15.8,27.2L80,37.9l0.1-0.1c2.4-3.4,3.7-7.3,3.7-11.4C83.8,15.6,75,6.8,64.2,6.8z"/>
		</g>
		<g>
			<path class="st2" d="M73.2,26.3c0,5-4,9-9,9c-4.9,0-8.9-4-8.9-9c0-4.9,4-8.9,8.9-8.9C69.2,17.4,73.2,21.4,73.2,26.3z"/>
			<path class="st1" d="M64.2,36.8c-5.8,0-10.4-4.7-10.4-10.5c0-5.7,4.7-10.4,10.4-10.4c5.8,0,10.5,4.7,10.5,10.4
				C74.7,32.1,70,36.8,64.2,36.8z M64.2,18.9c-4.1,0-7.4,3.3-7.4,7.4s3.3,7.5,7.4,7.5c4.1,0,7.5-3.3,7.5-7.5
				C71.7,22.2,68.3,18.9,64.2,18.9z"/>
		</g>
	</g>
	<g>
		<g>
			<path class="st4" d="M64.2,99.6c0.9,0,1.7,0.8,1.7,1.7s-0.7,1.7-1.7,1.7c-0.9,0-1.6-0.8-1.6-1.7C62.6,100.3,63.3,99.6,64.2,99.6z
				"/>
			<path class="st4" d="M64.2,103.4c-1.2,0-2.1-1-2.1-2.2c0-0.6,0.2-1.1,0.6-1.5s1-0.7,1.5-0.7c1.2,0,2.2,1,2.2,2.2
				C66.4,102.5,65.4,103.4,64.2,103.4z M64.2,100.1c-0.3,0-0.6,0.1-0.8,0.4c-0.2,0.2-0.3,0.5-0.3,0.8c0,0.7,0.5,1.2,1.1,1.2
				c0.7,0,1.2-0.5,1.2-1.2S64.9,100.1,64.2,100.1z"/>
		</g>
		<g>
			<path class="st4" d="M64.2,88c0.9,0,1.7,0.7,1.7,1.6s-0.7,1.7-1.7,1.7c-0.9,0-1.7-0.8-1.7-1.7C62.6,88.7,63.3,88,64.2,88z"/>
			<path class="st4" d="M64.2,91.8L64.2,91.8c-1.2,0-2.2-1-2.2-2.2s1-2.1,2.2-2.1c1.2,0,2.2,0.9,2.2,2.1S65.5,91.8,64.2,91.8
				L64.2,91.8z M64.2,88.5c-0.6,0-1.1,0.5-1.2,1.1c0,0.6,0.5,1.2,1.2,1.2c0.7,0,1.2-0.5,1.2-1.2C65.4,89,64.9,88.5,64.2,88.5z"/>
		</g>
		<g>
			<path class="st4" d="M64.2,76.3c0.9,0,1.7,0.8,1.7,1.7s-0.7,1.7-1.7,1.7c-0.9,0-1.7-0.8-1.6-1.7C62.6,77.1,63.3,76.3,64.2,76.3z"
				/>
			<path class="st4" d="M64.2,80.2c-0.6,0-1.1-0.2-1.5-0.7c-0.4-0.4-0.6-1-0.6-1.5s0.2-1.1,0.6-1.5s1-0.7,1.5-0.7
				c1.2,0,2.2,1,2.2,2.2S65.4,80.2,64.2,80.2z M64.2,76.8c-0.3,0-0.6,0.1-0.8,0.4c-0.2,0.2-0.3,0.5-0.3,0.8s0.1,0.6,0.3,0.8
				c0.2,0.2,0.5,0.4,0.8,0.4c0.6,0,1.2-0.5,1.2-1.2C65.4,77.4,64.9,76.8,64.2,76.8z"/>
		</g>
	</g>
</g>
</svg>
