<?xml version="1.0" encoding="utf-8"?>
<!-- Generator: Adobe Illustrator 20.0.0, SVG Export Plug-In . SVG Version: 6.00 Build 0)  -->
<svg version="1.1" id="Layer_1" xmlns="http://www.w3.org/2000/svg" xmlns:xlink="http://www.w3.org/1999/xlink" x="0px" y="0px"
	 viewBox="0 0 129 129" style="enable-background:new 0 0 129 129;" xml:space="preserve">
<style type="text/css">
	.st0{fill:#E60F18;}
	.st1{fill:#37474F;}
	.st2{fill:#FFFFFF;}
	.st3{fill:#B0BEC5;}
	.st4{fill:#FF6666;}
</style>
<g>
	<g>
		<g>
			<path class="st0" d="M95.2,64.4c0,16.9-13.8,30.7-30.7,30.7S33.8,81.4,33.8,64.4c0-16.9,13.7-30.6,30.7-30.6S95.2,47.5,95.2,64.4
				z"/>
		</g>
		<g>
			<path class="st1" d="M64.5,96.6c-17.7,0-32.2-14.4-32.2-32.2c0.1-17.7,14.5-32.1,32.2-32.1s32.2,14.4,32.2,32.1
				C96.7,82.2,82.3,96.6,64.5,96.6z M64.5,35.3c-16.1,0-29.2,13-29.2,29.1s13.1,29.2,29.2,29.2s29.2-13.1,29.2-29.2
				C93.7,48.4,80.6,35.3,64.5,35.3z"/>
		</g>
	</g>
	<g>
		<g>
			<path class="st2" d="M82.5,64.4c0,9.9-8.1,18-18,18s-18-8.1-18-18s8.1-17.9,18-17.9S82.5,54.5,82.5,64.4z"/>
		</g>
		<g>
			<path class="st1" d="M64.5,83.9C53.8,83.9,45,75.2,45,64.4C45,53.7,53.7,45,64.5,45S84,53.7,84,64.4C84,75.2,75.3,83.9,64.5,83.9
				z M64.5,48C55.4,48,48,55.4,48,64.4c0,9.1,7.4,16.5,16.5,16.5S81,73.5,81,64.4C81,55.4,73.6,48,64.5,48z"/>
		</g>
	</g>
	<g>
		<g>
			<g>
				<g>
					<path class="st0" d="M63.5,7.3c31,0,56.1,25.1,56.1,56.1"/>
				</g>
				<g>
					<path class="st1" d="M119.6,64.9c-0.8,0-1.5-0.7-1.5-1.5c0-30.1-24.5-54.6-54.6-54.6c-0.8,0-1.5-0.7-1.5-1.5s0.7-1.5,1.5-1.5
						c31.8,0,57.6,25.8,57.6,57.6C121.1,64.2,120.4,64.9,119.6,64.9z"/>
				</g>
			</g>
			<g>
				<g>
					<polygon class="st2" points="113.2,62.3 120,72.1 126.7,62.3 					"/>
				</g>
				<g>
					<path class="st1" d="M120,73.6c-0.5,0-1-0.2-1.2-0.6l-6.8-9.8c-0.3-0.5-0.4-1.1-0.1-1.5c0.3-0.5,0.8-0.8,1.3-0.8h13.5
						c0.6,0,1.1,0.3,1.3,0.8c0.3,0.5,0.2,1.1-0.1,1.5l-6.7,9.8C120.9,73.3,120.4,73.6,120,73.6L120,73.6z M116.1,63.8l3.9,5.6
						l3.9-5.6H116.1z"/>
				</g>
			</g>
		</g>
		<g>
			<g>
				<g>
					<path class="st3" d="M65.6,121.7c-31,0-56.1-25.1-56.1-56.1"/>
				</g>
				<g>
					<path class="st1" d="M65.6,123.2C33.8,123.2,8,97.3,8,65.6h3c0,30.1,24.5,54.6,54.6,54.6V123.2z"/>
				</g>
			</g>
			<g>
				<g>
					<polygon class="st2" points="15.9,66.3 9.1,56.5 2.4,66.3 					"/>
				</g>
				<g>
					<path class="st1" d="M15.9,67.8H2.4c-0.6,0-1.1-0.3-1.3-0.8c-0.3-0.5-0.3-1.1,0.1-1.6l6.7-9.8C8.2,55.2,8.6,55,9.1,55l0,0
						c0.5,0,1,0.2,1.2,0.6l6.8,9.8c0.3,0.5,0.4,1.1,0.1,1.5C17,67.5,16.4,67.8,15.9,67.8z M5.3,64.8h7.8l-3.9-5.6L5.3,64.8z"/>
				</g>
			</g>
		</g>
	</g>
	<g>
		<g>
			<path class="st4" d="M72.8,64.4c0,4.6-3.7,8.3-8.3,8.3s-8.3-3.7-8.3-8.3c0-4.6,3.7-8.2,8.3-8.2S72.8,59.9,72.8,64.4z"/>
		</g>
		<g>
			<path class="st1" d="M64.5,74.2c-5.4,0-9.8-4.4-9.8-9.8s4.4-9.7,9.8-9.7c5.4,0,9.8,4.4,9.8,9.7C74.3,69.8,69.9,74.2,64.5,74.2z
				 M64.5,57.7c-3.7,0-6.8,3-6.8,6.7s3,6.8,6.8,6.8c3.7,0,6.8-3,6.8-6.8C71.3,60.7,68.3,57.7,64.5,57.7z"/>
		</g>
	</g>
	<g>
		<g>
			<g>
				<g>
					<path class="st1" d="M22.5,37c0.7,0.7,0.7,1.8,0,2.4c-0.7,0.7-1.8,0.7-2.4,0c-0.7-0.7-0.7-1.8,0-2.5
						C20.7,36.3,21.8,36.3,22.5,37z"/>
				</g>
				<g>
					<path class="st1" d="M21.2,40.4c-0.6,0-1.1-0.2-1.5-0.6s-0.6-1-0.6-1.6s0.2-1.2,0.7-1.6c0.8-0.8,2.3-0.8,3.1,0
						c0.4,0.4,0.7,1,0.7,1.6s-0.2,1.1-0.6,1.5C22.4,40.1,21.8,40.4,21.2,40.4z M21.3,37c-0.3,0-0.6,0.1-0.8,0.3
						c-0.2,0.2-0.4,0.6-0.4,0.9s0.1,0.6,0.3,0.8c0.5,0.5,1.3,0.4,1.7,0c0.2-0.2,0.3-0.5,0.3-0.8s-0.1-0.6-0.4-0.9
						C21.9,37.1,21.6,37,21.3,37z"/>
				</g>
			</g>
			<g>
				<g>
					<path class="st1" d="M31,28.5c0.7,0.7,0.6,1.8,0,2.4c-0.7,0.7-1.8,0.7-2.4,0c-0.7-0.7-0.7-1.8,0-2.4
						C29.2,27.8,30.3,27.8,31,28.5z"/>
				</g>
				<g>
					<path class="st1" d="M29.8,31.9c-0.6,0-1.2-0.2-1.6-0.6c-0.4-0.4-0.6-1-0.6-1.6s0.2-1.1,0.6-1.6c0.8-0.8,2.3-0.8,3.2,0
						c0.8,0.8,0.8,2.3,0,3.1C30.9,31.7,30.4,31.9,29.8,31.9z M29.8,28.5c-0.3,0-0.7,0.1-0.9,0.4c-0.2,0.2-0.4,0.5-0.4,0.9
						c0,0.3,0.1,0.6,0.4,0.9c0.4,0.4,1.3,0.4,1.7,0c0.5-0.5,0.5-1.3,0-1.7C30.4,28.6,30.1,28.5,29.8,28.5z"/>
				</g>
			</g>
			<g>
				<g>
					<path class="st1" d="M39.5,20c0.7,0.7,0.7,1.8,0,2.4c-0.7,0.7-1.8,0.7-2.4,0c-0.7-0.7-0.7-1.8,0-2.4
						C37.7,19.3,38.8,19.3,39.5,20z"/>
				</g>
				<g>
					<path class="st1" d="M38.2,23.4c-0.6,0-1.1-0.2-1.6-0.7c-0.4-0.4-0.6-1-0.6-1.6s0.2-1.2,0.7-1.6c0.8-0.8,2.3-0.8,3.1,0
						c0.8,0.9,0.9,2.3,0,3.1C39.4,23.2,38.8,23.4,38.2,23.4z M38.2,20c-0.3,0-0.6,0.1-0.8,0.3c-0.2,0.2-0.4,0.6-0.4,0.9
						c0,0.3,0.1,0.6,0.4,0.8c0.5,0.5,1.3,0.5,1.7,0c0.5-0.5,0.5-1.2,0-1.7C38.9,20.1,38.6,20,38.2,20z"/>
				</g>
			</g>
		</g>
		<g>
			<g>
				<g>
					<path class="st1" d="M92,106.5c0.7,0.7,0.7,1.8,0,2.4c-0.7,0.7-1.8,0.7-2.4,0c-0.7-0.7-0.7-1.8,0-2.4
						C90.3,105.9,91.4,105.9,92,106.5z"/>
				</g>
				<g>
					<path class="st1" d="M90.8,109.9c-0.6,0-1.1-0.2-1.5-0.6c-0.9-0.9-0.8-2.3,0-3.2c0.8-0.8,2.3-0.8,3.1,0c0.4,0.4,0.7,1,0.7,1.6
						s-0.2,1.1-0.6,1.5C92,109.7,91.4,109.9,90.8,109.9z M90.8,106.5c-0.3,0-0.6,0.1-0.8,0.3c-0.5,0.5-0.5,1.3,0,1.7
						c0.4,0.4,1.3,0.4,1.7,0c0.2-0.2,0.3-0.5,0.3-0.8s-0.1-0.6-0.4-0.9C91.5,106.7,91.2,106.5,90.8,106.5z"/>
				</g>
			</g>
			<g>
				<g>
					<path class="st1" d="M100.6,98c0.7,0.7,0.6,1.8,0,2.4c-0.7,0.7-1.8,0.7-2.4,0c-0.7-0.7-0.7-1.8,0-2.4
						C98.8,97.4,99.9,97.4,100.6,98z"/>
				</g>
				<g>
					<path class="st1" d="M99.3,101.5c-0.6,0-1.2-0.2-1.6-0.6c-0.9-0.9-0.9-2.3,0-3.1c0.8-0.8,2.3-0.8,3.2,0c0.9,0.9,0.9,2.3,0,3.1
						C100.5,101.2,99.9,101.5,99.3,101.5z M99.4,98c-0.3,0-0.7,0.1-0.9,0.4c-0.5,0.5-0.5,1.3,0,1.7c0.5,0.5,1.3,0.5,1.7,0
						c0.5-0.5,0.5-1.3,0-1.7C100,98.2,99.7,98,99.4,98z"/>
				</g>
			</g>
			<g>
				<g>
					<path class="st1" d="M109,89.6c0.7,0.7,0.7,1.7,0,2.4s-1.8,0.7-2.4,0c-0.7-0.7-0.7-1.8,0-2.4C107.3,88.9,108.4,88.9,109,89.6z"
						/>
				</g>
				<g>
					<path class="st1" d="M107.8,93c-0.6,0-1.1-0.2-1.6-0.7c-0.4-0.4-0.6-1-0.6-1.5c0-0.6,0.2-1.2,0.7-1.6c0.8-0.8,2.3-0.8,3.1,0
						c0.9,0.9,0.9,2.2,0,3.1C109,92.7,108.4,93,107.8,93z M107.8,89.6c-0.3,0-0.6,0.1-0.8,0.3c-0.2,0.2-0.4,0.5-0.4,0.9
						c0,0.3,0.1,0.6,0.4,0.8c0.5,0.5,1.3,0.5,1.7,0c0.5-0.5,0.5-1.2,0-1.7C108.5,89.7,108.1,89.6,107.8,89.6z"/>
				</g>
			</g>
		</g>
	</g>
</g>
</svg>
